<?xml version="1.0" encoding="utf-8"?>
<!-- Generator: Adobe Illustrator 26.3.1, SVG Export Plug-In . SVG Version: 6.00 Build 0)  -->
<svg version="1.1" id="Layer_1" xmlns="http://www.w3.org/2000/svg" xmlns:xlink="http://www.w3.org/1999/xlink" x="0px" y="0px"
	 width="48.6px" height="48.6px" viewBox="0 0 48.6 48.6" style="enable-background:new 0 0 48.6 48.6;" xml:space="preserve">
<style type="text/css">
	.st0{fill:#E92A2D;}
</style>
<g>
	<path class="st0" d="M24.3,48.6C10.9,48.6,0,37.7,0,24.3C0,10.9,10.9,0,24.3,0c13.4,0,24.3,10.9,24.3,24.3
		C48.6,37.7,37.7,48.6,24.3,48.6z M24.3,1C11.4,1,1,11.4,1,24.3s10.4,23.3,23.3,23.3s23.3-10.4,23.3-23.3S37.1,1,24.3,1z"/>
</g>
<polygon class="st0" points="26.9,15.2 26.2,15.9 34.2,23.9 13.3,23.9 13.3,24.9 34,24.9 26.2,32.6 26.9,33.3 36,24.3 "/>
</svg>
