<svg width="50" height="50" viewBox="0 0 50 50" fill="none" xmlns="http://www.w3.org/2000/svg">
<g clip-path="url(#clip0_501_2)">
<path d="M25.611 1.00194C39.0099 1.17343 49.7696 12.212 49.5981 25.6109C49.4266 39.0098 38.388 49.7694 24.9891 49.598C11.5902 49.4265 0.830581 38.3879 1.00206 24.989C1.17355 11.5901 12.2121 0.830461 25.611 1.00194ZM25.0019 48.598C37.9008 48.7631 48.4331 38.4971 48.5982 25.5981C48.7632 12.6992 38.4972 2.16695 25.5982 2.00186C12.6993 1.83678 2.16707 12.1028 2.00198 25.0018C1.8369 37.9007 12.2029 48.4342 25.0019 48.598Z" fill="#E92A2D"/>
<path d="M22.5837 34.366L23.2926 33.675L15.3957 25.5733L36.294 25.8408L36.3068 24.8408L15.6084 24.5759L23.5063 16.9764L22.8154 16.2675L13.6009 25.1503L22.5837 34.366Z" fill="#E92A2D"/>
</g>
<defs>
<clipPath id="clip0_501_2">
<rect width="48.6" height="48.6" fill="white" transform="translate(49.2871 49.9089) rotate(-179.267)"/>
</clipPath>
</defs>
</svg>
