<?xml version="1.0" encoding="utf-8"?>
<!-- Generator: Adobe Illustrator 26.3.1, SVG Export Plug-In . SVG Version: 6.00 Build 0)  -->
<svg version="1.1" id="Layer_1" xmlns="http://www.w3.org/2000/svg" xmlns:xlink="http://www.w3.org/1999/xlink" x="0px" y="0px"
	 width="117.1px" height="73.9px" viewBox="0 0 117.1 73.9" style="enable-background:new 0 0 117.1 73.9;" xml:space="preserve">
<style type="text/css">
	.st0{fill:#E92A2D;}
</style>
<path class="st0" d="M117.1,10.3c0,0-12.2-1.2-21.2-5.1s-29-7.8-43.5-0.4C38,12.3,27,20.5,14.1,19c-2.7-0.3-5.6-0.4-8-1.8
	c-1.3-0.8-2.2-1.8-2.7-3.3c-0.6-1.7-2.6-2-3.3-0.1c-0.4,1.2,0.4,2.6,1,3.5c3.5,5.5,21.5,14.1,47,10.6S84.6,31.5,85,40.9
	c0.4,9.4-6.3,24.3-27,23.9c-5-0.4-10.2-1.3-14.7-3.6c-1.8-0.9-4.5,0.6-3.7,2.8c1.2,3.1,13.7,8.6,31.7,9c18,0.4,34.1-2.3,45.8-1.6
	C117.1,71.4,117.1,9.2,117.1,10.3z"/>
</svg>
