<?xml version="1.0" encoding="utf-8"?>
<!-- Generator: Adobe Illustrator 26.3.1, SVG Export Plug-In . SVG Version: 6.00 Build 0)  -->
<svg version="1.1" id="Layer_1" xmlns="http://www.w3.org/2000/svg" xmlns:xlink="http://www.w3.org/1999/xlink" x="0px" y="0px"
	 width="20.9px" height="28.9px" viewBox="0 0 20.9 28.9" style="enable-background:new 0 0 20.9 28.9;" xml:space="preserve">
<style type="text/css">
	.st0{fill:#E92A2D;}
</style>
<path class="st0" d="M10.2,28.9c-0.2-0.2-0.5-0.4-0.7-0.6c-2.4-2.8-4.6-5.8-6.5-9c-1.1-1.9-2-3.8-2.6-5.9C-0.4,10.3,0,7.3,1.8,4.6
	C3.5,2.1,5.9,0.5,9,0.1c3-0.4,5.7,0.3,8.1,2.3c2.1,1.7,3.3,3.9,3.7,6.5c0.3,2.1-0.1,4-0.8,5.9c-1,2.6-2.3,4.9-3.8,7.2
	c-1.5,2.2-3.1,4.3-4.8,6.2c-0.2,0.2-0.5,0.4-0.7,0.6C10.5,28.9,10.4,28.9,10.2,28.9z M10.5,15.7c2.9,0,5.3-2.4,5.3-5.3
	c0-2.9-2.3-5.3-5.2-5.3c-2.9,0-5.3,2.4-5.3,5.3C5.2,13.4,7.6,15.7,10.5,15.7z"/>
</svg>
