<svg width="45" height="56" viewBox="0 0 45 56" fill="none" xmlns="http://www.w3.org/2000/svg">
<path d="M21.9531 56C21.5223 55.6126 20.8762 55.2251 20.4454 54.8377C15.2764 49.4136 10.5381 43.602 6.44597 37.403C4.07683 33.7224 2.13844 30.0417 0.846182 25.9736C-0.876829 19.9683 -0.0153238 14.1568 3.86145 8.92639C7.52285 4.08343 12.6919 0.983931 19.3685 0.209057C25.8298 -0.565818 31.645 0.790212 36.814 4.66458C41.3369 7.9578 43.9214 12.2196 44.783 17.2563C45.4291 21.3244 44.5676 25.005 43.0599 28.6857C40.9062 33.7224 38.1063 38.1779 34.8756 42.6334C31.645 46.8952 28.199 50.9633 24.5376 54.644C24.1068 55.0314 23.4607 55.4188 23.0299 55.8063C22.5992 56 22.3838 56 21.9531 56ZM22.5992 30.4291C28.8451 30.4291 34.0141 25.7799 34.0141 20.1621C34.0141 14.5442 29.0605 9.89498 22.8146 9.89498C16.5687 9.89498 11.3996 14.5442 11.3996 20.1621C11.1842 25.9736 16.3533 30.4291 22.5992 30.4291Z" fill="#E92A2D"/>
</svg>
