<?xml version="1.0" encoding="utf-8"?>
<!-- Generator: Adobe Illustrator 26.3.1, SVG Export Plug-In . SVG Version: 6.00 Build 0)  -->
<svg version="1.1" id="Layer_1" xmlns="http://www.w3.org/2000/svg" xmlns:xlink="http://www.w3.org/1999/xlink" x="0px" y="0px"
	 width="57.7px" height="56.4px" viewBox="0 0 57.7 56.4" style="enable-background:new 0 0 57.7 56.4;" xml:space="preserve">
<style type="text/css">
	.st0{fill:#FFFFFF;}
</style>
<g>
	<path class="st0" d="M57.7,28.9c-0.4,1.4-1.3,2.5-2.2,3.6c-0.9,1-1.2,2.2-0.8,3.5c0.2,0.7,0.3,1.5,0.5,2.3c0.3,1.8-0.3,3.2-1.9,4.2
		c-0.7,0.5-1.5,0.9-2.3,1.2c-1.2,0.5-1.9,1.4-2.1,2.7c-0.1,0.8-0.3,1.6-0.6,2.3c-0.7,2-1.9,2.9-4,3c-1,0-2,0.1-2.9,0.1
		c-0.8,0-1.4,0.4-1.9,1c-0.6,0.7-1.1,1.4-1.7,2c-1.5,1.7-3.1,2.1-5.2,1.2c-0.8-0.3-1.6-0.7-2.4-1.1c-0.8-0.4-1.6-0.4-2.4,0
		c-0.9,0.4-1.8,0.8-2.7,1.2c-1.8,0.7-3.4,0.4-4.7-1.1c-0.6-0.7-1.2-1.5-1.8-2.2c-0.6-0.7-1.2-1.1-2.1-1.1c-1.1,0-2.3,0-3.4-0.2
		c-1.7-0.2-2.7-1.2-3.3-2.7c-0.3-1-0.6-1.9-0.8-2.9c-0.2-1-0.7-1.7-1.6-2.1c-0.7-0.3-1.4-0.7-2.1-1c-2.3-1.2-3-2.7-2.4-5.3
		c0.1-0.7,0.3-1.4,0.5-2.1c0.2-0.9,0.1-1.7-0.5-2.4c-0.5-0.6-1-1.3-1.5-2c-1.4-2-1.4-3.6,0-5.6c0.5-0.7,1-1.3,1.5-2
		c0.6-0.7,0.7-1.5,0.5-2.4c-0.2-0.9-0.4-1.9-0.6-2.8c-0.3-1.8,0.3-3.3,1.9-4.2c0.9-0.5,1.8-1,2.7-1.4c0.9-0.4,1.4-1.1,1.6-2.1
		C9,9.6,9.2,8.8,9.4,7.9c0.7-2.1,1.9-3.1,4.2-3.2c0.9,0,1.8-0.1,2.8-0.1c0.8,0,1.4-0.4,1.9-1c0.5-0.6,1-1.3,1.5-1.9
		c1.7-1.9,3.3-2.3,5.6-1.3c0.7,0.3,1.4,0.6,2.1,1c0.8,0.4,1.6,0.4,2.4,0c0.8-0.4,1.5-0.7,2.3-1.1c2.2-0.9,3.8-0.6,5.4,1.2
		c0.6,0.6,1.1,1.3,1.6,2c0.5,0.6,1.2,1,2,1c1.2,0,2.4,0,3.5,0.2C46.5,5,47.6,6,48.1,7.6c0.3,1,0.6,2,0.8,3c0.2,0.9,0.7,1.6,1.6,2
		c0.7,0.3,1.4,0.7,2.1,1c2.3,1.2,3,2.7,2.5,5.3c-0.2,0.8-0.4,1.7-0.5,2.5c-0.1,0.7,0.1,1.4,0.5,2c0.4,0.5,0.9,1.1,1.3,1.7
		c0.5,0.8,0.9,1.7,1.4,2.5C57.7,28,57.7,28.4,57.7,28.9z M15,49.1c2.6-0.3,4.6,0.8,6,2.9c0.3,0.4,0.6,0.8,0.9,1.1
		c0.8,0.8,1.2,0.9,2.3,0.5c0.8-0.3,1.5-0.7,2.3-1.1c1.5-0.7,3.1-0.7,4.6,0c0.6,0.3,1.3,0.6,1.9,0.9c1.5,0.7,1.9,0.6,3-0.7
		c0.2-0.3,0.4-0.6,0.7-0.8c0.4-0.5,0.8-1,1.2-1.4c0.8-0.8,1.7-1.2,2.8-1.3c1.1-0.1,2.2-0.1,3.3-0.1c1.2-0.1,1.6-0.4,1.9-1.5
		c0.2-0.7,0.4-1.3,0.5-2c0.4-2.1,1.5-3.4,3.5-4.3c0.7-0.3,1.3-0.7,2-1c0.7-0.4,1-1,0.8-1.8c-0.2-0.7-0.3-1.5-0.5-2.2
		c-0.5-2-0.2-3.7,1.2-5.3c0.4-0.5,0.8-1,1.1-1.5c0.8-1.1,0.8-1.6,0-2.8c-0.5-0.7-1.1-1.4-1.6-2.1c-0.8-1.1-1.1-2.3-0.9-3.6
		c0.2-1.1,0.4-2.2,0.6-3.3c0.2-0.8-0.1-1.4-0.8-1.8c-0.7-0.4-1.5-0.8-2.2-1.1c-1.8-0.8-2.8-2.1-3.2-4.1C46.2,10,46,9.2,45.7,8.4
		c-0.2-0.6-0.6-1-1.3-1c-0.9-0.1-1.7-0.1-2.6-0.1c-2,0-3.6-0.7-4.8-2.3c-0.4-0.6-0.9-1.2-1.4-1.7c-0.8-0.8-1.2-0.9-2.3-0.5
		c-0.7,0.3-1.4,0.6-2,0.9c-1.7,0.9-3.5,0.8-5.2,0c-0.7-0.4-1.5-0.7-2.2-1c-0.7-0.3-1.4-0.2-1.9,0.4c-0.5,0.6-1,1.1-1.4,1.7
		c-1.3,1.8-3,2.6-5.2,2.5c-0.8,0-1.5,0-2.3,0.1c-0.7,0-1.1,0.4-1.3,1.1c-0.2,0.7-0.4,1.4-0.5,2.1c-0.4,2.2-1.6,3.8-3.7,4.7
		c-0.7,0.3-1.3,0.6-1.9,1c-0.6,0.4-0.9,0.9-0.7,1.6c0.1,0.7,0.2,1.5,0.4,2.2c0.6,2,0.2,3.9-1.2,5.4c-0.4,0.4-0.8,0.9-1.1,1.4
		c-0.8,1.1-0.8,1.6,0,2.7c0.5,0.7,1.1,1.4,1.6,2.1c0.8,1.1,1.1,2.2,0.9,3.6c-0.2,1.1-0.4,2.1-0.6,3.2c-0.2,1,0,1.4,0.9,1.9
		c0.7,0.4,1.4,0.7,2.1,1c1.8,0.8,2.9,2.1,3.2,4c0.1,0.7,0.3,1.5,0.5,2.2c0.3,1.1,0.7,1.4,1.8,1.4C14.1,49.2,14.6,49.1,15,49.1z"/>
	<path class="st0" d="M48.9,28.2c0,11.1-9,20.1-20.1,20.1c-11.1,0-20.1-9-20.1-20.1c0-11.1,9-20.1,20.1-20.1
		C39.9,8.1,48.9,17.1,48.9,28.2z M28.8,45.8c9.7,0,17.6-7.9,17.6-17.5c0-9.7-7.9-17.6-17.5-17.6c-9.7,0-17.6,7.9-17.6,17.5
		C11.3,37.8,19.2,45.7,28.8,45.8z"/>
	<path class="st0" d="M27.4,22.1c0,2.6-2.1,4.7-4.7,4.7c-2.6,0-4.7-2.1-4.7-4.7c0-2.6,2.1-4.7,4.7-4.7
		C25.3,17.4,27.4,19.5,27.4,22.1z M22.7,24.3c1.2,0,2.2-1,2.2-2.2c0-1.2-1-2.2-2.2-2.2c-1.2,0-2.2,1-2.2,2.2
		C20.5,23.3,21.5,24.3,22.7,24.3z"/>
	<path class="st0" d="M30.3,34.3c0-2.6,2.1-4.7,4.7-4.7c2.6,0,4.7,2.1,4.7,4.7c0,2.6-2.1,4.7-4.7,4.7C32.4,39,30.3,36.9,30.3,34.3z
		 M32.8,34.3c0,1.2,1,2.2,2.2,2.2c1.2,0,2.2-1,2.2-2.2c0-1.2-1-2.2-2.2-2.2C33.7,32.1,32.8,33.1,32.8,34.3z"/>
	<path class="st0" d="M33.5,22.1c0.4,0.3,0.9,0.5,1,0.8c0.2,0.4,0.1,0.8,0,1.3c0,0.2-0.2,0.3-0.4,0.5c-4,4-8.1,8.1-12.1,12.1
		c-0.3,0.3-0.7,0.5-1.1,0.6c-0.5,0.1-0.9-0.2-1.1-0.6c-0.2-0.4-0.2-0.9,0.1-1.3c0.1-0.1,0.2-0.3,0.3-0.4c4.1-4.1,8.1-8.1,12.2-12.2
		C32.7,22.6,33.1,22.4,33.5,22.1z"/>
	<path class="st0" d="M36.8,21.5c-0.7,0-1.2-0.6-1.2-1.3c0-0.7,0.7-1.3,1.3-1.3c0.7,0,1.3,0.6,1.2,1.3
		C38.1,20.8,37.5,21.5,36.8,21.5z"/>
</g>
</svg>
