<svg width="57" height="56" viewBox="0 0 57 56" fill="none" xmlns="http://www.w3.org/2000/svg">
<path d="M27.8072 56C27.2616 55.6126 26.4432 55.2251 25.8975 54.8377C19.3501 49.4136 13.3483 43.602 8.16489 37.403C5.16398 33.7224 2.70869 30.0417 1.07183 25.9736C-1.11065 19.9683 -0.0194101 14.1568 4.89117 8.92639C9.52894 4.08343 16.0764 0.983931 24.5335 0.209057C32.7178 -0.565818 40.0837 0.790212 46.6311 4.66458C52.3601 7.9578 55.6338 12.2196 56.7251 17.2563C57.5435 21.3244 56.4523 25.005 54.5426 28.6857C51.8145 33.7224 48.268 38.1779 44.1758 42.6334C40.0837 46.8952 35.7187 50.9633 31.0809 54.644C30.5353 55.0314 29.7169 55.4188 29.1713 55.8063C28.6256 56 28.3528 56 27.8072 56ZM28.6256 30.4291C36.5371 30.4291 43.0846 25.7799 43.0846 20.1621C43.0846 14.5442 36.8099 9.89498 28.8985 9.89498C20.987 9.89498 14.4395 14.5442 14.4395 20.1621C14.1667 25.9736 20.7142 30.4291 28.6256 30.4291Z" fill="#E92A2D"/>
</svg>
